PathFileType  4	(X/Y/Z) C:\Users\15086\Documents\NMBL_Research\NordBoard_Files\K_Nord_Zeroed\
DataRate	CameraRate	NumFrames	NumMarkers	Units	OrigDataRate	OrigDataStartFrame	OrigNumFrames
  200.0		  200.0		   5		     52		 mm	  200.0	      957	   1912
Frame#	Time	C7			R_Shoulder			L_Shoulder			Sternum			R_humerus			R_elbow_med			R_elbow_lat			R_forearm			R_wrist_radius			R_wrist_ulna			L_humerus			L_elbow_med			L_elbow_lat			L_forearm			L_wrist_radius			L_wrist_ulna			r.ASIS			r.PSIS			r_IC			L.ASIS			L.PSIS			l_IC			r_thigh1			r_thigh2			r_thigh3			r_thigh4			r_thigh5			r_knee			r_mknee			r_shank_antsup			r_sh2			r_sh3			r_sh4			r_ankle			r_mankle			r_calc			r_5meta			r_toe			L_thigh1			L_thigh2			L_thigh3			L_thigh4			L_knee			L_mknee			L_shank_antsup			L_sh2			L_sh3			L_ankle			L_mankle			L_calc			L_5meta			L_toe			
		X1	Y1	Z1	X2	Y2	Z2	X3	Y3	Z3	X4	Y4	Z4	X5	Y5	Z5	X6	Y6	Z6	X7	Y7	Z7	X8	Y8	Z8	X9	Y9	Z9	X10	Y10	Z10	X11	Y11	Z11	X12	Y12	Z12	X13	Y13	Z13	X14	Y14	Z14	X15	Y15	Z15	X16	Y16	Z16	X17	Y17	Z17	X18	Y18	Z18	X19	Y19	Z19	X20	Y20	Z20	X21	Y21	Z21	X22	Y22	Z22	X23	Y23	Z23	X24	Y24	Z24	X25	Y25	Z25	X26	Y26	Z26	X27	Y27	Z27	X28	Y28	Z28	X29	Y29	Z29	X30	Y30	Z30	X31	Y31	Z31	X32	Y32	Z32	X33	Y33	Z33	X34	Y34	Z34	X35	Y35	Z35	X36	Y36	Z36	X37	Y37	Z37	X38	Y38	Z38	X39	Y39	Z39	X40	Y40	Z40	X41	Y41	Z41	X42	Y42	Z42	X43	Y43	Z43	X44	Y44	Z44	X45	Y45	Z45	X46	Y46	Z46	X47	Y47	Z47	X48	Y48	Z48	X49	Y49	Z49	X50	Y50	Z50	X51	Y51	Z51	X52	Y52	Z52	

957	4.78000	1226.354	1226.968	-619.169	1343.293	1218.971	-667.136	1091.317	1229.317	-644.489	1210.133	1141.432	-726.340	1505.353	1193.402	-595.137	1635.213	1115.573	-613.871	1617.687	1171.208	-551.654	1620.120	1258.034	-642.471	1576.612	1293.179	-761.570	1634.764	1322.265	-735.669	949.002	1198.352	-534.823	792.347	1135.880	-548.663	821.929	1204.166	-497.521	838.908	1272.185	-574.116	842.390	1329.538	-685.167	913.977	1307.543	-679.821	1340.413	698.443	-551.405	1307.417	856.230	-435.653	1385.109	811.430	-526.441	1111.431	695.419	-521.985	1192.901	858.906	-420.789	1080.301	804.710	-517.343	1362.290	479.728	-473.679	1355.201	372.230	-428.863	1392.716	356.158	-390.281	1420.611	511.712	-388.173	1409.570	403.439	-345.172	1393.685	303.990	-314.830	1270.189	307.695	-300.611	1418.386	309.721	-208.403	1426.256	320.743	-86.822	1423.224	387.228	-212.796	1415.244	401.324	-96.391	1425.701	365.573	72.056	1345.732	349.193	72.379	1361.754	438.780	77.192	1429.646	302.635	191.811	1389.408	252.993	178.716	1038.100	529.197	-411.448	1030.041	400.228	-356.964	1049.247	578.650	-303.551	1060.303	448.706	-254.214	1034.176	337.835	-265.463	1160.392	309.553	-268.069	1026.641	323.385	-166.000	1040.538	411.443	-174.800	1048.784	411.708	-53.095	1082.648	379.800	110.121	1157.465	350.700	101.448	1126.913	437.216	113.789	1107.219	299.347	243.428	1140.640	256.124	215.942
958	4.78500	1226.378	1226.909	-619.385	1343.261	1218.901	-667.338	1091.276	1229.336	-644.429	1210.145	1141.326	-726.500	1505.330	1193.328	-595.372	1634.919	1115.663	-614.024	1617.671	1171.172	-551.896	1620.077	1257.965	-642.722	1576.548	1292.996	-761.876	1634.715	1322.205	-735.911	949.059	1198.246	-534.936	792.396	1135.725	-548.691	821.967	1204.034	-497.564	838.894	1272.077	-574.182	842.468	1329.222	-685.341	913.935	1307.370	-679.890	1340.408	698.378	-551.526	1307.417	856.199	-435.853	1385.102	811.370	-526.628	1111.450	695.406	-522.061	1192.932	858.875	-420.960	1080.283	804.769	-517.370	1362.264	479.688	-473.805	1355.181	372.216	-428.891	1392.680	356.115	-390.300	1420.622	511.674	-388.288	1409.589	403.416	-345.235	1393.671	304.012	-314.825	1270.201	307.695	-300.614	1418.424	309.708	-208.419	1426.312	320.751	-86.844	1423.260	387.199	-212.807	1415.338	401.404	-96.412	1425.697	365.589	72.068	1345.769	349.238	72.397	1361.744	438.845	77.215	1429.693	302.634	191.813	1389.396	253.146	178.643	1038.097	529.145	-411.515	1030.057	400.260	-357.021	1049.282	578.658	-303.617	1060.315	448.702	-254.238	1034.211	337.825	-265.457	1160.387	309.540	-268.100	1026.676	323.397	-166.012	1040.555	411.480	-174.821	1048.419	411.929	-53.679	1082.746	379.828	110.109	1157.577	350.671	101.405	1127.004	437.234	113.752	1107.380	299.339	243.418	1140.735	256.176	215.927
959	4.79000	1226.302	1226.814	-619.642	1343.232	1218.846	-667.551	1091.167	1229.193	-644.788	1210.113	1141.195	-726.656	1505.284	1193.262	-595.567	1634.916	1115.545	-614.264	1617.645	1171.119	-552.090	1620.023	1257.886	-642.959	1576.463	1292.942	-762.093	1634.648	1322.088	-736.192	949.062	1198.150	-535.070	792.410	1135.596	-548.677	822.021	1203.903	-497.592	838.896	1271.950	-574.265	842.324	1329.228	-685.294	913.894	1307.212	-680.002	1340.380	698.295	-551.640	1307.434	856.152	-436.033	1385.094	811.305	-526.818	1111.436	695.294	-522.188	1192.951	858.825	-421.146	1080.292	804.652	-517.503	1362.299	479.607	-473.856	1355.194	372.205	-428.920	1392.741	356.123	-390.341	1420.617	511.660	-388.334	1409.590	403.430	-345.236	1393.655	304.012	-314.837	1270.204	307.697	-300.626	1418.421	309.690	-208.424	1426.552	321.323	-86.770	1423.274	387.192	-212.806	1415.375	401.339	-96.466	1425.765	365.598	72.055	1345.799	349.290	72.410	1361.903	438.851	77.171	1429.730	302.641	191.812	1389.399	253.093	178.682	1038.078	529.112	-411.597	1030.051	400.224	-357.034	1049.275	578.642	-303.685	1060.324	448.721	-254.251	1034.211	337.842	-265.456	1160.376	309.548	-268.110	1026.694	323.387	-166.006	1040.567	411.486	-174.821	1048.461	411.937	-53.680	1082.842	379.799	110.079	1157.678	350.675	101.406	1127.097	437.223	113.715	1107.513	299.414	243.399	1140.812	256.159	215.943
960	4.79500	1226.326	1226.747	-619.888	1343.236	1218.744	-667.764	1091.206	1229.120	-644.781	1210.092	1141.072	-726.814	1505.246	1193.169	-595.805	1634.936	1115.425	-614.494	1617.610	1171.035	-552.323	1619.991	1257.756	-643.227	1576.396	1292.815	-762.344	1634.611	1321.985	-736.453	949.087	1197.999	-535.107	792.443	1135.455	-548.691	822.074	1203.768	-497.642	838.957	1271.766	-574.299	842.387	1328.913	-685.473	913.854	1307.056	-680.102	1340.394	698.213	-551.761	1307.438	856.087	-436.201	1385.104	811.234	-526.986	1111.418	695.267	-522.278	1192.991	858.765	-421.295	1080.300	804.611	-517.615	1362.290	479.545	-473.915	1355.183	372.172	-428.942	1392.697	356.092	-390.363	1420.616	511.623	-388.435	1409.572	403.421	-345.276	1393.668	304.011	-314.851	1270.195	307.697	-300.637	1418.435	309.704	-208.418	1426.572	321.315	-86.781	1423.323	387.195	-212.817	1415.524	401.471	-96.470	1425.831	365.591	72.043	1345.811	349.324	72.399	1361.968	438.865	77.194	1429.783	302.651	191.781	1389.396	253.135	178.700	1038.085	529.070	-411.597	1030.008	400.206	-357.127	1049.316	578.596	-303.754	1060.329	448.703	-254.307	1034.197	337.837	-265.457	1160.380	309.544	-268.173	1026.713	323.411	-166.006	1040.616	411.470	-174.836	1048.541	411.955	-53.709	1082.909	379.741	110.101	1157.738	350.653	101.335	1127.198	437.188	113.679	1107.619	299.409	243.408	1140.926	256.260	215.941
961	4.80000	1226.288	1226.640	-620.127	1343.237	1218.634	-667.968	1091.180	1228.990	-644.978	1210.077	1140.950	-727.007	1505.237	1193.060	-595.995	1634.911	1115.298	-614.668	1617.617	1170.942	-552.512	1619.934	1257.666	-643.433	1576.321	1292.685	-762.585	1634.542	1321.821	-736.695	949.155	1197.853	-535.234	792.475	1135.321	-548.702	822.108	1203.651	-497.680	838.946	1271.568	-574.361	842.214	1328.907	-685.450	913.835	1306.862	-680.229	1340.391	698.140	-551.881	1307.461	856.046	-436.389	1385.141	811.131	-527.176	1111.419	695.125	-522.395	1193.025	858.656	-421.478	1080.295	804.503	-517.731	1362.344	479.484	-474.009	1355.195	372.143	-428.980	1392.721	356.069	-390.362	1420.635	511.570	-388.498	1409.616	403.407	-345.294	1393.692	303.928	-314.851	1270.195	307.709	-300.615	1418.437	309.665	-208.437	1426.397	320.773	-86.843	1423.331	387.197	-212.798	1415.437	401.364	-96.446	1425.894	365.548	72.044	1345.842	349.373	72.396	1362.086	438.890	77.163	1429.869	302.632	191.775	1389.454	253.078	178.734	1038.081	529.068	-411.642	1030.016	400.161	-357.150	1049.339	578.597	-303.798	1060.349	448.727	-254.334	1034.195	337.829	-265.491	1160.379	309.554	-268.184	1026.712	323.408	-165.987	1040.618	411.461	-174.831	1048.604	411.942	-53.694	1083.021	379.790	110.102	1157.865	350.596	101.337	1127.311	437.129	113.643	1107.793	299.439	243.409	1141.051	256.189	215.932
